<?xml version="1.0" encoding="utf-8"?>
<!-- Generator: Adobe Illustrator 24.3.0, SVG Export Plug-In . SVG Version: 6.00 Build 0)  -->
<svg version="1.1" id="Capa_3" xmlns="http://www.w3.org/2000/svg" xmlns:xlink="http://www.w3.org/1999/xlink" x="0px" y="0px"
	 viewBox="0 0 444.6 45.2" style="enable-background:new 0 0 444.6 45.2;" xml:space="preserve">
<style type="text/css">
	.st0{fill:#FFFFFF;}
	.st1{fill:#F6F6F6;}
	.st2{fill:#243060;}
	.st3{fill:#F38F1C;}
	.st4{fill:#292F6A;}
	.st5{fill:#45BBC2;}
	.st6{fill:#2D2E83;}
	.st7{fill:url(#SVGID_6_);}
	.st8{fill:url(#SVGID_7_);}
	.st9{fill:url(#SVGID_8_);}
	.st10{fill:url(#SVGID_9_);}
	.st11{fill:url(#SVGID_10_);}
	.st12{fill:#2D2E83;stroke:#2D2E83;stroke-width:0.5;stroke-miterlimit:10;}
	.st13{fill:#BF1622;}
	.st14{fill:url(#SVGID_11_);}
	.st15{fill:url(#SVGID_12_);}
	.st16{fill:url(#SVGID_13_);}
	.st17{fill:url(#SVGID_14_);}
	.st18{fill:url(#SVGID_15_);}
	.st19{fill:url(#SVGID_16_);}
	.st20{fill:#BE1622;}
	.st21{fill:#ED6F2A;}
	.st22{fill:#008BCB;}
	.st23{fill:#FCBF07;}
	.st24{fill:#008241;}
	.st25{fill:#8CBF34;}
	.st26{fill:#83623D;}
	.st27{fill:#BC9E6C;}
</style>
<g>
	<g>
		<path d="M83.6,11.5l-3.4,3.3c-2.3-2.5-4.9-3.7-7.8-3.7c-2.5,0-4.5,0.8-6.2,2.5c-1.7,1.7-2.5,3.7-2.5,6.2c0,1.7,0.4,3.2,1.1,4.6
			c0.7,1.3,1.8,2.4,3.2,3.1s2.9,1.1,4.5,1.1c1.4,0,2.7-0.3,3.9-0.8c1.2-0.5,2.5-1.5,3.9-2.9l3.3,3.5c-1.9,1.9-3.7,3.1-5.4,3.8
			s-3.6,1.1-5.8,1.1c-4,0-7.3-1.3-9.8-3.8c-2.5-2.5-3.8-5.8-3.8-9.7c0-2.6,0.6-4.8,1.7-6.8c1.2-2,2.8-3.6,5-4.8
			c2.2-1.2,4.5-1.8,7-1.8c2.1,0,4.2,0.4,6.1,1.3C80.4,8.6,82.1,9.9,83.6,11.5z"/>
		<path d="M96.2,13.2c1.8,0,3.5,0.4,5,1.3s2.8,2.1,3.7,3.6c0.9,1.5,1.3,3.2,1.3,5c0,1.8-0.4,3.5-1.3,5c-0.9,1.6-2.1,2.8-3.6,3.7
			c-1.5,0.9-3.2,1.3-5.1,1.3c-2.7,0-5-1-7-2.9c-1.9-1.9-2.9-4.3-2.9-7.1c0-3,1.1-5.4,3.3-7.4C91.5,14.1,93.7,13.2,96.2,13.2z
			 M96.3,17.7c-1.5,0-2.7,0.5-3.7,1.5c-1,1-1.5,2.3-1.5,4c0,1.7,0.5,3,1.5,4c1,1,2.2,1.5,3.7,1.5s2.7-0.5,3.7-1.6c1-1,1.5-2.4,1.5-4
			c0-1.6-0.5-3-1.5-4S97.8,17.7,96.3,17.7z"/>
		<path d="M109,13.7h4.1v2.4c0.4-0.9,1-1.7,1.8-2.1c0.7-0.5,1.5-0.7,2.4-0.7c0.6,0,1.3,0.2,1.9,0.5l-1.5,4.1c-0.6-0.3-1-0.4-1.4-0.4
			c-0.7,0-1.4,0.5-1.9,1.4c-0.5,0.9-0.8,2.7-0.8,5.3l0,0.9v7.7H109V13.7z"/>
		<path d="M126.3,13.7v2.1c0.9-0.9,1.8-1.5,2.8-1.9c1-0.4,2.1-0.6,3.2-0.6c2.5,0,4.6,0.9,6.3,2.8c1.7,1.9,2.6,4.3,2.6,7.2
			c0,2.8-0.9,5.2-2.7,7.1c-1.8,1.9-3.9,2.9-6.4,2.9c-1.1,0-2.1-0.2-3.1-0.6c-0.9-0.4-1.9-1-2.8-1.9v8.9h-4.7V13.7H126.3z
			 M131.3,17.6c-1.5,0-2.7,0.5-3.7,1.5c-1,1-1.5,2.4-1.5,4c0,1.7,0.5,3,1.5,4.1c1,1,2.2,1.6,3.7,1.6c1.5,0,2.7-0.5,3.7-1.6
			s1.5-2.4,1.5-4c0-1.6-0.5-3-1.5-4S132.8,17.6,131.3,17.6z"/>
		<path d="M154.1,13.2c1.8,0,3.5,0.4,5,1.3s2.8,2.1,3.7,3.6c0.9,1.5,1.3,3.2,1.3,5c0,1.8-0.4,3.5-1.3,5c-0.9,1.6-2.1,2.8-3.6,3.7
			c-1.5,0.9-3.2,1.3-5.1,1.3c-2.7,0-5-1-7-2.9c-1.9-1.9-2.9-4.3-2.9-7.1c0-3,1.1-5.4,3.3-7.4C149.4,14.1,151.6,13.2,154.1,13.2z
			 M154.2,17.7c-1.5,0-2.7,0.5-3.7,1.5c-1,1-1.5,2.3-1.5,4c0,1.7,0.5,3,1.5,4c1,1,2.2,1.5,3.7,1.5s2.7-0.5,3.7-1.6
			c1-1,1.5-2.4,1.5-4c0-1.6-0.5-3-1.5-4S155.7,17.7,154.2,17.7z"/>
		<path d="M166.9,13.7h4.1v2.4c0.4-0.9,1-1.7,1.8-2.1c0.7-0.5,1.5-0.7,2.4-0.7c0.6,0,1.3,0.2,1.9,0.5l-1.5,4.1
			c-0.6-0.3-1-0.4-1.4-0.4c-0.7,0-1.4,0.5-1.9,1.4c-0.5,0.9-0.8,2.7-0.8,5.3l0,0.9v7.7h-4.7V13.7z"/>
		<path d="M193.5,13.7h4.8v19h-4.8v-2c-0.9,0.9-1.9,1.5-2.8,1.9c-0.9,0.4-1.9,0.6-3,0.6c-2.5,0-4.6-1-6.4-2.9
			c-1.8-1.9-2.7-4.3-2.7-7.1c0-2.9,0.9-5.3,2.6-7.2c1.7-1.9,3.8-2.8,6.3-2.8c1.1,0,2.2,0.2,3.2,0.6s1.9,1.1,2.8,1.9V13.7z
			 M188.5,17.6c-1.5,0-2.7,0.5-3.7,1.6c-1,1-1.5,2.4-1.5,4c0,1.6,0.5,3,1.5,4c1,1.1,2.2,1.6,3.7,1.6c1.5,0,2.7-0.5,3.7-1.6
			c1-1,1.5-2.4,1.5-4.1c0-1.7-0.5-3-1.5-4C191.2,18.1,190,17.6,188.5,17.6z"/>
		<path d="M203.6,6.7h4.8v7h2.8v4.1h-2.8v14.9h-4.8V17.8h-2.4v-4.1h2.4V6.7z"/>
		<path d="M215.6,5.9c0.8,0,1.6,0.3,2.1,0.9c0.6,0.6,0.9,1.3,0.9,2.2c0,0.8-0.3,1.6-0.9,2.2c-0.6,0.6-1.3,0.9-2.1,0.9
			c-0.8,0-1.6-0.3-2.2-0.9c-0.6-0.6-0.9-1.4-0.9-2.2c0-0.8,0.3-1.6,0.9-2.1C214.1,6.2,214.8,5.9,215.6,5.9z M213.2,13.7h4.8v19h-4.8
			V13.7z"/>
		<path d="M220.3,13.7h4.9l4.8,11.2l4.8-11.2h4.8l-8.1,19h-3.1L220.3,13.7z"/>
		<path d="M251.2,13.2c1.8,0,3.5,0.4,5,1.3c1.6,0.9,2.8,2.1,3.7,3.6c0.9,1.5,1.3,3.2,1.3,5c0,1.8-0.4,3.5-1.3,5s-2.1,2.8-3.6,3.7
			c-1.5,0.9-3.2,1.3-5.1,1.3c-2.7,0-5-1-7-2.9c-1.9-1.9-2.9-4.3-2.9-7.1c0-3,1.1-5.4,3.3-7.4C246.6,14.1,248.8,13.2,251.2,13.2z
			 M251.3,17.7c-1.5,0-2.7,0.5-3.7,1.5c-1,1-1.5,2.3-1.5,4c0,1.7,0.5,3,1.5,4c1,1,2.2,1.5,3.7,1.5c1.5,0,2.7-0.5,3.7-1.6
			c1-1,1.5-2.4,1.5-4c0-1.6-0.5-3-1.5-4C254.1,18.2,252.8,17.7,251.3,17.7z"/>
		<path d="M299.4,11.2l-3.4,3.4c-2.2-2.3-4.7-3.5-7.6-3.5c-2.5,0-4.6,0.8-6.3,2.5s-2.6,3.7-2.6,6.1c0,2.5,0.9,4.6,2.7,6.3
			c1.8,1.7,4,2.6,6.5,2.6c1.7,0,3.1-0.4,4.3-1.1s2.1-1.8,2.8-3.3h-7.4v-4.6h12.9l0,1.1c0,2.2-0.6,4.4-1.7,6.4
			c-1.2,2-2.7,3.5-4.5,4.6s-4,1.6-6.5,1.6c-2.7,0-5-0.6-7.1-1.7c-2.1-1.2-3.7-2.8-5-4.9c-1.2-2.1-1.8-4.4-1.8-6.9
			c0-3.4,1.1-6.3,3.4-8.9c2.7-3,6.1-4.5,10.4-4.5c2.2,0,4.3,0.4,6.3,1.2C296.2,8.3,297.8,9.5,299.4,11.2z"/>
		<path d="M304.1,13.7h4.1v2.4c0.4-0.9,1-1.7,1.8-2.1c0.7-0.5,1.5-0.7,2.4-0.7c0.6,0,1.3,0.2,1.9,0.5l-1.5,4.1
			c-0.6-0.3-1-0.4-1.4-0.4c-0.7,0-1.4,0.5-1.9,1.4c-0.5,0.9-0.8,2.7-0.8,5.3l0,0.9v7.7h-4.7V13.7z"/>
		<path d="M316.6,13.7h4.8v9.1c0,1.8,0.1,3,0.4,3.7c0.2,0.7,0.6,1.2,1.2,1.6c0.5,0.4,1.2,0.6,2,0.6c0.8,0,1.5-0.2,2-0.6
			c0.6-0.4,1-0.9,1.2-1.7c0.2-0.5,0.3-1.7,0.3-3.5v-9.3h4.8v8c0,3.3-0.3,5.6-0.8,6.8c-0.6,1.5-1.6,2.6-2.8,3.4s-2.8,1.2-4.7,1.2
			c-2.1,0-3.8-0.5-5-1.4c-1.3-0.9-2.2-2.2-2.7-3.9c-0.4-1.2-0.6-3.2-0.6-6.3V13.7z"/>
		<path d="M342.8,13.7v2.1c0.9-0.9,1.8-1.5,2.8-1.9s2.1-0.6,3.2-0.6c2.5,0,4.6,0.9,6.3,2.8c1.7,1.9,2.6,4.3,2.6,7.2
			c0,2.8-0.9,5.2-2.7,7.1c-1.8,1.9-3.9,2.9-6.4,2.9c-1.1,0-2.1-0.2-3.1-0.6c-0.9-0.4-1.9-1-2.8-1.9v8.9H338V13.7H342.8z M347.8,17.6
			c-1.5,0-2.7,0.5-3.7,1.5c-1,1-1.5,2.4-1.5,4c0,1.7,0.5,3,1.5,4.1c1,1,2.2,1.6,3.7,1.6c1.5,0,2.7-0.5,3.7-1.6s1.5-2.4,1.5-4
			c0-1.6-0.5-3-1.5-4S349.3,17.6,347.8,17.6z"/>
		<path d="M370.5,13.2c1.8,0,3.5,0.4,5,1.3c1.6,0.9,2.8,2.1,3.7,3.6c0.9,1.5,1.3,3.2,1.3,5c0,1.8-0.4,3.5-1.3,5s-2.1,2.8-3.6,3.7
			c-1.5,0.9-3.2,1.3-5.1,1.3c-2.7,0-5-1-7-2.9c-1.9-1.9-2.9-4.3-2.9-7.1c0-3,1.1-5.4,3.3-7.4C365.9,14.1,368.1,13.2,370.5,13.2z
			 M370.6,17.7c-1.5,0-2.7,0.5-3.7,1.5c-1,1-1.5,2.3-1.5,4c0,1.7,0.5,3,1.5,4c1,1,2.2,1.5,3.7,1.5c1.5,0,2.7-0.5,3.7-1.6
			c1-1,1.5-2.4,1.5-4c0-1.6-0.5-3-1.5-4S372.1,17.7,370.6,17.7z"/>
		<path d="M408.5,10.5l-3.6,3.2c-1.3-1.8-2.6-2.7-3.9-2.7c-0.6,0-1.2,0.2-1.6,0.5c-0.4,0.3-0.6,0.7-0.6,1.2c0,0.4,0.1,0.8,0.4,1.2
			c0.4,0.5,1.6,1.6,3.6,3.3c1.9,1.6,3,2.5,3.4,2.9c1,1,1.7,2,2.1,2.9c0.4,0.9,0.6,1.9,0.6,3c0,2.1-0.7,3.8-2.2,5.2s-3.4,2.1-5.7,2.1
			c-1.8,0-3.4-0.4-4.8-1.3c-1.4-0.9-2.5-2.3-3.5-4.2l4.1-2.5c1.2,2.3,2.7,3.4,4.3,3.4c0.8,0,1.5-0.2,2.1-0.7
			c0.6-0.5,0.9-1.1,0.9-1.7c0-0.6-0.2-1.2-0.6-1.7c-0.4-0.6-1.4-1.5-2.8-2.7c-2.8-2.3-4.6-4-5.4-5.3c-0.8-1.2-1.2-2.5-1.2-3.7
			c0-1.8,0.7-3.3,2-4.6c1.4-1.3,3-1.9,5-1.9c1.3,0,2.5,0.3,3.7,0.9C405.9,7.9,407.1,8.9,408.5,10.5z"/>
		<path d="M413,13.7h4.8v9.1c0,1.8,0.1,3,0.4,3.7c0.2,0.7,0.6,1.2,1.2,1.6c0.5,0.4,1.2,0.6,2,0.6c0.8,0,1.5-0.2,2-0.6
			c0.6-0.4,1-0.9,1.2-1.7c0.2-0.5,0.3-1.7,0.3-3.5v-9.3h4.8v8c0,3.3-0.3,5.6-0.8,6.8c-0.6,1.5-1.6,2.6-2.8,3.4s-2.8,1.2-4.7,1.2
			c-2.1,0-3.8-0.5-5-1.4c-1.3-0.9-2.2-2.2-2.7-3.9c-0.4-1.2-0.6-3.2-0.6-6.3V13.7z"/>
		<path d="M433.4,13.7h4.1v2.4c0.4-0.9,1-1.7,1.8-2.1c0.7-0.5,1.5-0.7,2.4-0.7c0.6,0,1.3,0.2,1.9,0.5l-1.5,4.1
			c-0.6-0.3-1-0.4-1.4-0.4c-0.7,0-1.4,0.5-1.9,1.4c-0.5,0.9-0.8,2.7-0.8,5.3l0,0.9v7.7h-4.7V13.7z"/>
	</g>
	<g>
		<path d="M47.1,21.5c0,0,0.3,1.4-0.1,4.1c-0.1,0.8-1.1,1.3-1.4,2c-1.4,3.6-4.3,2.8-4.3,2.8l0.8-1.7c0,0-7.1,2.9-7.8,4.1
			c-0.7,1.1,10.1-12.2-1.3-10.6C33.1,22.2,40.5,17.4,47.1,21.5z"/>
		<path d="M5.2,24.8c2.2-8.3,11.4-13.4,11.4-13.4c-9.7,10.1-0.2,9.2-0.2,9.2s2.6,5.1-0.4,5.5l-2.8-1.2c0,0-5.5,4.9-5.8,4.6
			C6.2,28.2,5.5,26.6,5.2,24.8"/>
		<path d="M10.3,17.6c0,0,11.8-11.4,28.7-11.8c-4.2-3.3-9.6-5-15.3-4.3C12.2,2.9,4,13.3,5.2,24.9C5.8,22.9,7.3,20.3,10.3,17.6z"/>
		<path d="M28.9,32L28.9,32C28.9,32,28.9,32,28.9,32c-0.5,0.4-1,0.8-1.5,1.2c-2.9,2.1-9.5,6-15.3,2.8c0,0,0.5,5,6.3,7.2
			c0,0,0.9,0.3,1.3,0.4c1.6,0.4,3.5,0.6,5.9,0.5c0.5,0,0.9,0,1.4-0.1c0.1,0,0.2,0,0.3,0c0,0,0,0,0,0c0,0,0,0,0,0
			c1.1-0.1,2.1-0.3,2.9-0.5c1.6-0.4,3.1-1,4.6-1.7c5.5-2.7,9.6-7.4,11.4-12.9c0.5-1.6,0.9-3.2,1-4.8C44.5,24.5,37,25.9,28.9,32z"/>
		<path d="M14.3,12.7c1-3,3.1-6.8,7.7-10.4c-0.8,0.2-1.6,0.4-2.5,0.7c-0.2,0.1-0.4,0.2-0.7,0.2c0,0-3.9,1.5-7.3,5.1
			c-3,3.2-4.9,6.9-5.5,11.1c1-1.4,2.5-2.9,4.6-4.4C10.8,15,12.1,14,14.3,12.7z"/>
		<path d="M31.5,30.7c-1.5,3.5-14.2,10.7-6,12.6c1-0.1,1.7,0.1,2.7-0.2c0.3-0.1,3.2-0.7,3.5-0.8c0,0,2.7-0.6,7.2-4.6
			c3.9-3.5,6-7.7,7.2-12.7c-1.5,0.4-5,0.6-7.6,2.2C38.2,27.4,34.3,29.4,31.5,30.7z"/>
		<g>
			<path d="M28.2,25.9c0.8-0.5,1.6-1,2.5-1.5c0,0,0,0,0.1-0.1c0.8-0.4,1.7-0.9,2.6-1.3c4.6-2.2,10.9-4.2,13.8-0.9c0-0.3,0-0.7-0.1-1
				c-0.4-3.8-1.9-7.3-4-10.2c-1.8-0.6-3.9-0.5-5.7-0.4c-5,0.3-9.9,1.9-14.5,4c0,0-13.1,5.5-15.6,14.8c-0.1,0.2,0.9,1,1,1.1
				c0.4,0.4,0.9,0.7,1.4,1c1.2,0.7,2.6,1,4,1c1.6,0,3.2-0.3,4.7-0.8c1-0.3,2-0.7,2.9-1.2c1.2-0.6,2.3-1.3,3.4-2.1
				C25.8,27.6,27,26.7,28.2,25.9z"/>
		</g>
		<path d="M23.9,27.9c4.5-5.1,6.3-13.5,4-14.6C9.4,19.9,8.2,29.6,8.2,29.6s2.8,2.8,7,2.3C15.3,31.8,23,30.2,23.9,27.9z"/>
	</g>
</g>
</svg>
